<svg width="89" height="32" viewBox="0 0 89 32" fill="none" xmlns="http://www.w3.org/2000/svg">
<g clip-path="url(#clip0_785_12871)">
<g clip-path="url(#clip1_785_12871)">
<path d="M8.14606 20.575L4.29917 24.409L3.33789 23.4614L7.39167 19.4235C7.75197 19.0647 8.29006 18.9783 8.75615 19.1813C9.16641 19.3599 9.49379 19.7788 9.49409 20.2736L9.49644 23.4474L8.15458 23.4465L8.14606 20.5753V20.575Z" fill="black"/>
<path d="M2.57078 15.4618L2.56931 14.1208L5.44933 14.1123L1.60156 10.2739L2.55579 9.32422L6.6272 13.3864C6.98221 13.7406 7.03864 14.2889 6.84174 14.7336C6.65542 15.1539 6.224 15.4588 5.72 15.4594L2.57137 15.4618H2.57078Z" fill="black"/>
<path d="M11.8552 20.5725L11.8525 26L10.5048 25.9991L10.5039 20.3314C10.5039 19.8141 10.7978 19.3797 11.2374 19.1838C11.7203 18.9688 12.2578 19.0716 12.6334 19.4442L14.8519 21.6554L13.8968 22.6039L11.8549 20.5722L11.8552 20.5725Z" fill="black"/>
<path d="M14.5577 17.8919L18.3984 21.7247L17.4468 22.6758L13.463 18.7071C13.0971 18.3424 12.944 17.8564 13.125 17.3561C13.2857 16.9115 13.6969 16.5731 14.2182 16.5415L17.4353 16.54L17.433 17.8842L14.5577 17.8919Z" fill="black"/>
<path d="M4.36882 20.8673L3.41459 19.9239L5.44971 17.8872L0.00852252 17.884L0 16.54L5.74682 16.5424C6.26111 16.5424 6.69018 16.8839 6.86063 17.3072C7.06076 17.8037 6.93351 18.3353 6.54941 18.6924L4.36882 20.8673Z" fill="black"/>
<path d="M19.9899 14.1172L19.9987 15.4593L14.2772 15.4588C13.7699 15.4588 13.347 15.148 13.1616 14.7329C12.9526 14.2657 13.0355 13.7238 13.3982 13.3617L15.6352 11.1279L16.5865 12.0785L14.5505 14.1137L19.9902 14.1169L19.9899 14.1172Z" fill="black"/>
<path d="M7.35095 12.5355L5.15625 10.3454L6.10783 9.39397L8.1503 11.4236L8.15559 6.00049H9.49774L9.4998 11.6536C9.4998 12.1744 9.20768 12.6193 8.76803 12.8129C8.26844 13.0332 7.7374 12.9201 7.35124 12.5349L7.35095 12.5355Z" fill="black"/>
<path d="M10.5039 11.6719L10.5051 8.55404L11.8513 8.55521L11.8555 11.4247L15.7053 7.5874L16.661 8.53734L12.5793 12.6007C12.2216 12.9569 11.6609 13.0114 11.2142 12.8023C10.7934 12.6051 10.5039 12.1845 10.5039 11.6722V11.6719Z" fill="black"/>
</g>
<path d="M27.6352 24.1757H26V7.57617H27.6352V24.1757Z" fill="black"/>
<path d="M34.1652 24.4236C31.8363 24.4236 30.2754 23.0362 30.2754 20.2862V12.2837H31.8858V19.9393C31.8858 21.847 32.7777 23.0362 34.8093 23.0362C37.386 23.0362 38.377 21.2276 38.377 19.1465V12.2837H39.9874V24.1759H38.377V20.7817C37.9558 22.7637 36.6179 24.4236 34.1652 24.4236Z" fill="black"/>
<path d="M44.3422 24.1756H42.707V12.2834H44.3422V15.6033C44.7634 13.646 46.0765 12.0356 48.2815 12.0356C50.437 12.0356 51.7005 13.2496 51.8244 15.6529C52.2208 13.6956 53.5834 12.0356 55.8132 12.0356C58.0926 12.0356 59.3809 13.3983 59.3809 16.1236V24.1756H57.7457V16.4952C57.7457 14.4141 56.829 13.3983 54.9956 13.3983C52.8649 13.3983 51.8492 15.2317 51.8492 17.288V24.1756H50.2388V16.4952C50.2388 14.4141 49.3221 13.3983 47.4639 13.3983C45.358 13.3983 44.3422 15.2317 44.3422 17.288V24.1756Z" fill="black"/>
<path d="M63.6215 10.1528H61.9863V7.57617H63.6215V10.1528ZM63.6215 24.1757H61.9863V12.2835H63.6215V24.1757Z" fill="black"/>
<path d="M67.971 24.1756H66.3359V12.2834H67.971V15.6033C68.3922 13.6708 69.7549 12.0356 72.1333 12.0356C74.487 12.0356 76.0726 13.4231 76.0726 16.1484V24.1756H74.4374V16.52C74.4374 14.5875 73.5455 13.3983 71.4891 13.3983C68.9868 13.3983 67.971 15.2317 67.971 17.288V24.1756Z" fill="black"/>
<path d="M81.0947 24.4233C79.1375 24.4233 78.0226 23.358 78.0226 21.7724C78.0226 20.2115 79.187 19.2205 80.847 18.4772L85.3561 16.4209V16.3218C85.3561 14.538 84.5137 13.4974 82.5812 13.4974C80.7974 13.4974 79.5091 14.5132 78.8897 15.8263L77.75 14.6866C78.4933 13.4478 80.2276 12.0356 82.7547 12.0356C85.5295 12.0356 86.9665 13.646 86.9665 16.297V21.8715C86.9665 22.4909 87.239 22.7138 87.8089 22.7138H88.5026V24.1756H87.3877C86.1985 24.1756 85.4056 23.6553 85.4056 22.144V20.8805C85.0092 22.59 83.4732 24.4233 81.0947 24.4233ZM79.6578 21.5494C79.6578 22.5404 80.401 23.0607 81.5655 23.0607C83.7705 23.0607 85.4056 21.3512 85.4056 19.7408V17.6349L81.5407 19.4683C80.2524 20.0629 79.6578 20.6575 79.6578 21.5494Z" fill="black"/>
</g>
<defs>
<clipPath id="clip0_785_12871">
<rect width="88.5026" height="32" fill="white"/>
</clipPath>
<clipPath id="clip1_785_12871">
<rect width="20" height="20" fill="white" transform="translate(0 6)"/>
</clipPath>
</defs>
</svg>
