<svg width="94" height="37" viewBox="0 0 94 37" fill="none" xmlns="http://www.w3.org/2000/svg">
<mask id="mask0_761_9027" style="mask-type:luminance" maskUnits="userSpaceOnUse" x="0" y="6" width="25" height="25">
<path d="M25 6H0V31H25V6Z" fill="white"/>
</mask>
<g mask="url(#mask0_761_9027)">
<path d="M22.6868 25.664L23.1548 24.9644L16.9586 20.8384C16.8616 21.1073 16.7477 21.3699 16.6191 21.622L22.6868 25.6619V25.664Z" fill="white"/>
<path d="M15.2796 6.36962L14.4511 6.20996L13.2852 12.1869C13.555 12.3087 13.8144 12.4453 14.0631 12.6007L15.2796 6.36962Z" fill="white"/>
<path d="M4.0965 9.36147L3.50195 9.95601L6.4029 12.8321C6.6391 12.6661 6.8836 12.5148 7.1408 12.3783L4.0986 9.35938L4.0965 9.36147Z" fill="white"/>
<path d="M12.8609 6H12.0176V11.7563C12.3064 11.8235 12.5868 11.9097 12.8609 12.0126V6Z" fill="white"/>
<path d="M5.979 7.88882L5.2832 8.36361L7.8258 12.0632C8.0957 11.956 8.374 11.8615 8.6586 11.788L5.979 7.88672V7.88882Z" fill="white"/>
<path d="M8.20017 6.83838L7.41797 7.1535L9.24797 11.6661C9.53267 11.6178 9.82567 11.5884 10.1209 11.5758L8.20017 6.83838Z" fill="white"/>
<path d="M17.5814 7.1535L16.7992 6.83838L14.3789 12.809C14.6193 12.977 14.8512 13.1577 15.0683 13.3531L17.5814 7.1535Z" fill="white"/>
<path d="M24.802 16.4897L24.6418 15.6641L17.2207 17.0863C17.2776 17.3573 17.3155 17.6368 17.3408 17.9183L24.802 16.4897Z" fill="white"/>
<path d="M24.1638 14.0965L23.837 13.3213L16.9746 16.2015C17.0673 16.4662 17.1453 16.7373 17.2065 17.0167L24.1638 14.0965Z" fill="white"/>
<path d="M23.9505 23.5526L24.2625 22.7732L17.2103 19.9644C17.1513 20.2417 17.0732 20.5127 16.9805 20.7774L23.9483 23.5526H23.9505Z" fill="white"/>
<path d="M23.1433 11.9515L22.6774 11.252L16.5781 15.2919C16.7088 15.5419 16.8269 15.8024 16.9281 16.0692L23.1454 11.9515H23.1433Z" fill="white"/>
<path d="M17.3583 18.857L25.0008 18.8149L24.9966 17.9746L17.3477 18.0166C17.3583 18.1763 17.3667 18.3381 17.3667 18.4998C17.3667 18.6196 17.3646 18.7393 17.3583 18.857Z" fill="white"/>
<path d="M21.4974 9.95797L20.9028 9.36133L15.9336 14.2899C16.1065 14.5168 16.2667 14.7542 16.4122 15L21.4974 9.95797Z" fill="white"/>
<path d="M9.70117 30.599L10.5319 30.746L11.4869 25.3511C11.2023 25.3952 10.9113 25.4204 10.6162 25.4288L9.70117 30.599Z" fill="white"/>
<path d="M16.9781 30.1367L17.7603 29.8237L15.2198 23.5044C15.0069 23.7082 14.7792 23.8994 14.541 24.0758L16.976 30.1367H16.9781Z" fill="white"/>
<path d="M19.2183 29.0275L19.9182 28.557L15.9483 22.6914C15.7712 22.9225 15.5815 23.1431 15.377 23.349L19.2183 29.0254V29.0275Z" fill="white"/>
<path d="M7.24023 29.8234L8.02243 30.1364L9.91993 25.4137C9.62683 25.3927 9.33803 25.357 9.05763 25.3003L7.24023 29.8234Z" fill="white"/>
<path d="M12.2285 30.9998H13.0718V24.9053C12.7999 25.0187 12.5174 25.1133 12.2285 25.191V30.9998Z" fill="white"/>
<path d="M5.08203 28.5587L5.78203 29.0293L8.41313 25.1427C8.13483 25.0587 7.86283 24.9578 7.59933 24.8423L5.08413 28.5587H5.08203Z" fill="white"/>
<path d="M1.16662 13.3213L0.839844 14.0965L4.14563 15.4831C4.27003 15.2289 4.40913 14.9831 4.56303 14.7457L1.16662 13.3213Z" fill="white"/>
<path d="M14.4705 30.7439L15.3012 30.5968L14.1901 24.3174C13.9413 24.4791 13.682 24.6262 13.4121 24.7544L14.4726 30.7439H14.4705Z" fill="white"/>
<path d="M0.164062 20.3804L0.330623 21.2039L3.75236 20.5169C3.67013 20.2501 3.60688 19.977 3.55839 19.6997L0.164062 20.3804Z" fill="white"/>
<path d="M0.357496 15.6641L0.197266 16.4897L3.58528 17.1389C3.6401 16.8615 3.71389 16.5905 3.80243 16.3237L0.357496 15.6641Z" fill="white"/>
<path d="M0.738281 22.7711L1.05031 23.5506L4.50999 22.1724C4.36029 21.9329 4.22539 21.685 4.10309 21.4287L0.738281 22.769V22.7711Z" fill="white"/>
<path d="M3.29688 26.9665L3.8893 27.5652L6.97581 24.5295C6.72491 24.3867 6.48251 24.2312 6.25271 24.061L3.29688 26.9686V26.9665Z" fill="white"/>
<path d="M21.1117 27.565L21.7042 26.9663L16.5009 21.8486C16.3618 22.1007 16.2058 22.3423 16.0371 22.5734L21.1117 27.565Z" fill="white"/>
<path d="M10.5492 6.20996L9.7207 6.36962L10.7369 11.5755C11.0342 11.5902 11.3272 11.6238 11.616 11.6721L10.5492 6.20996Z" fill="white"/>
<path d="M5.00387 22.8613L1.8457 24.9643L2.31374 25.6638L5.57947 23.4895C5.37497 23.292 5.18097 23.084 5.00177 22.8634L5.00387 22.8613Z" fill="white"/>
<path d="M3.47234 17.9935L0.00422001 17.9746L0 18.8149L3.45969 18.8339C3.45336 18.7225 3.45126 18.6112 3.45126 18.4998C3.45126 18.3297 3.45969 18.1616 3.47234 17.9935Z" fill="white"/>
<path d="M5.64375 13.4494L2.3253 11.252L1.85938 11.9515L5.05766 14.0692C5.24106 13.8507 5.43715 13.6448 5.64585 13.4494H5.64375Z" fill="white"/>
<path d="M17.2559 19.7165L24.6687 21.2039L24.8352 20.3804L17.355 18.8804C17.3403 19.164 17.3044 19.4434 17.2559 19.7186V19.7165Z" fill="white"/>
<path d="M15.7798 14.0946L19.716 8.36346L19.0202 7.88867L15.1895 13.4664C15.3982 13.6639 15.5964 13.8719 15.7798 14.0946Z" fill="white"/>
</g>
<path d="M32.6352 26.6757H31V10.0762H32.6352V26.6757Z" fill="white"/>
<path d="M39.1652 26.9236C36.8363 26.9236 35.2754 25.5362 35.2754 22.7862V14.7837H36.8858V22.4393C36.8858 24.347 37.7777 25.5362 39.8093 25.5362C42.386 25.5362 43.377 23.7276 43.377 21.6465V14.7837H44.9874V26.6759H43.377V23.2817C42.9558 25.2637 41.6179 26.9236 39.1652 26.9236Z" fill="white"/>
<path d="M49.3422 26.6756H47.707V14.7834H49.3422V18.1033C49.7634 16.146 51.0765 14.5356 53.2815 14.5356C55.437 14.5356 56.7005 15.7496 56.8244 18.1529C57.2208 16.1956 58.5834 14.5356 60.8132 14.5356C63.0926 14.5356 64.3809 15.8983 64.3809 18.6236V26.6756H62.7457V18.9952C62.7457 16.9141 61.829 15.8983 59.9956 15.8983C57.8649 15.8983 56.8492 17.7317 56.8492 19.788V26.6756H55.2388V18.9952C55.2388 16.9141 54.3221 15.8983 52.4639 15.8983C50.358 15.8983 49.3422 17.7317 49.3422 19.788V26.6756Z" fill="white"/>
<path d="M68.6215 12.6528H66.9863V10.0762H68.6215V12.6528ZM68.6215 26.6757H66.9863V14.7835H68.6215V26.6757Z" fill="white"/>
<path d="M72.971 26.6756H71.3359V14.7834H72.971V18.1033C73.3922 16.1708 74.7549 14.5356 77.1333 14.5356C79.487 14.5356 81.0726 15.9231 81.0726 18.6484V26.6756H79.4374V19.02C79.4374 17.0875 78.5455 15.8983 76.4891 15.8983C73.9868 15.8983 72.971 17.7317 72.971 19.788V26.6756Z" fill="white"/>
<path d="M86.0947 26.9233C84.1375 26.9233 83.0226 25.858 83.0226 24.2724C83.0226 22.7115 84.187 21.7205 85.847 20.9772L90.3561 18.9209V18.8218C90.3561 17.038 89.5137 15.9974 87.5812 15.9974C85.7974 15.9974 84.5091 17.0132 83.8897 18.3263L82.75 17.1866C83.4933 15.9478 85.2276 14.5356 87.7547 14.5356C90.5295 14.5356 91.9665 16.146 91.9665 18.797V24.3715C91.9665 24.9909 92.239 25.2138 92.8089 25.2138H93.5026V26.6756H92.3877C91.1985 26.6756 90.4056 26.1553 90.4056 24.644V23.3805C90.0092 25.09 88.4732 26.9233 86.0947 26.9233ZM84.6578 24.0494C84.6578 25.0404 85.401 25.5607 86.5655 25.5607C88.7705 25.5607 90.4056 23.8512 90.4056 22.2408V20.1349L86.5407 21.9683C85.2524 22.5629 84.6578 23.1575 84.6578 24.0494Z" fill="white"/>
</svg>
