<svg width="106" height="37" viewBox="0 0 106 37" fill="none" xmlns="http://www.w3.org/2000/svg">
<g clip-path="url(#clip0_683_1000)">
<path d="M28.6873 25.664L29.1553 24.9644L22.9591 20.8384C22.8621 21.1073 22.7482 21.3699 22.6196 21.622L28.6873 25.6619V25.664Z" fill="#070606"/>
<path d="M21.2786 6.36962L20.4501 6.20996L19.2842 12.1869C19.554 12.3087 19.8134 12.4453 20.0621 12.6007L21.2786 6.36962Z" fill="#070606"/>
<path d="M10.0965 9.36148L9.50195 9.95601L12.4029 12.8321C12.6391 12.6661 12.8836 12.5148 13.1408 12.3783L10.0986 9.35938L10.0965 9.36148Z" fill="#070606"/>
<path d="M18.8604 6H18.0171V11.7563C18.3059 11.8235 18.5863 11.9097 18.8604 12.0126V6Z" fill="#070606"/>
<path d="M11.9792 7.88882L11.2834 8.36361L13.826 12.0632C14.0959 11.956 14.3742 11.8615 14.6588 11.788L11.9792 7.88672V7.88882Z" fill="#070606"/>
<path d="M14.2011 6.83838L13.4189 7.1535L15.2489 11.6661C15.5336 11.6178 15.8266 11.5884 16.1218 11.5758L14.2011 6.83838Z" fill="#070606"/>
<path d="M23.5809 7.1535L22.7987 6.83838L20.3784 12.809C20.6188 12.977 20.8507 13.1577 21.0678 13.3531L23.5809 7.1535Z" fill="#070606"/>
<path d="M30.8018 16.4897L30.6416 15.6641L23.2205 17.0863C23.2774 17.3573 23.3153 17.6368 23.3406 17.9183L30.8018 16.4897Z" fill="#070606"/>
<path d="M30.1631 14.0965L29.8363 13.3213L22.9739 16.2015C23.0666 16.4662 23.1446 16.7373 23.2058 17.0167L30.1631 14.0965Z" fill="#070606"/>
<path d="M29.95 23.5526L30.262 22.7732L23.2098 19.9644C23.1508 20.2417 23.0727 20.5127 22.98 20.7774L29.9478 23.5526H29.95Z" fill="#070606"/>
<path d="M29.1426 11.9515L28.6767 11.252L22.5774 15.2919C22.7081 15.5419 22.8262 15.8024 22.9274 16.0692L29.1447 11.9515H29.1426Z" fill="#070606"/>
<path d="M23.3575 18.857L31 18.8149L30.9958 17.9746L23.3469 18.0166C23.3575 18.1763 23.3659 18.3381 23.3659 18.4998C23.3659 18.6196 23.3638 18.7393 23.3575 18.857Z" fill="#070606"/>
<path d="M27.4981 9.95797L26.9035 9.36133L21.9343 14.2899C22.1072 14.5168 22.2674 14.7542 22.4129 15L27.4981 9.95797Z" fill="#070606"/>
<path d="M15.7002 30.599L16.5309 30.746L17.4859 25.3511C17.2013 25.3952 16.9103 25.4204 16.6152 25.4288L15.7002 30.599Z" fill="#070606"/>
<path d="M22.9779 30.1367L23.7601 29.8237L21.2196 23.5044C21.0067 23.7082 20.779 23.8994 20.5408 24.0758L22.9758 30.1367H22.9779Z" fill="#070606"/>
<path d="M25.219 29.0275L25.9189 28.557L21.949 22.6914C21.7719 22.9225 21.5822 23.1431 21.3777 23.349L25.219 29.0254V29.0275Z" fill="#070606"/>
<path d="M13.2397 29.8234L14.0219 30.1364L15.9194 25.4137C15.6263 25.3927 15.3375 25.357 15.0571 25.3003L13.2397 29.8234Z" fill="#070606"/>
<path d="M18.228 30.9998H19.0713V24.9053C18.7994 25.0187 18.5169 25.1133 18.228 25.191V30.9998Z" fill="#070606"/>
<path d="M11.083 28.5587L11.783 29.0293L14.4141 25.1427C14.1358 25.0587 13.8638 24.9578 13.6003 24.8423L11.0851 28.5587H11.083Z" fill="#070606"/>
<path d="M7.16589 13.3213L6.83911 14.0965L10.1449 15.4831C10.2693 15.2289 10.4084 14.9831 10.5623 14.7457L7.16589 13.3213Z" fill="#070606"/>
<path d="M20.4712 30.7439L21.3019 30.5968L20.1908 24.3174C19.942 24.4791 19.6827 24.6262 19.4128 24.7544L20.4733 30.7439H20.4712Z" fill="#070606"/>
<path d="M6.16455 20.3804L6.33111 21.2039L9.75285 20.5169C9.67062 20.2501 9.60737 19.977 9.55888 19.6997L6.16455 20.3804Z" fill="#070606"/>
<path d="M6.35847 15.6641L6.19824 16.4897L9.58625 17.1389C9.64107 16.8615 9.71486 16.5905 9.8034 16.3237L6.35847 15.6641Z" fill="#070606"/>
<path d="M6.73779 22.7711L7.04982 23.5506L10.5095 22.1724C10.3598 21.9329 10.2249 21.685 10.1026 21.4287L6.73779 22.769V22.7711Z" fill="#070606"/>
<path d="M9.29736 26.9665L9.88979 27.5652L12.9763 24.5295C12.7254 24.3867 12.483 24.2312 12.2532 24.061L9.29736 26.9686V26.9665Z" fill="#070606"/>
<path d="M27.1122 27.565L27.7047 26.9663L22.5014 21.8486C22.3623 22.1007 22.2063 22.3423 22.0376 22.5734L27.1122 27.565Z" fill="#070606"/>
<path d="M16.5497 6.20996L15.7212 6.36962L16.7374 11.5755C17.0347 11.5902 17.3277 11.6238 17.6165 11.6721L16.5497 6.20996Z" fill="#070606"/>
<path d="M11.0029 22.8613L7.84473 24.9643L8.31277 25.6638L11.5785 23.4895C11.374 23.292 11.18 23.084 11.0008 22.8634L11.0029 22.8613Z" fill="#070606"/>
<path d="M9.47234 17.9935L6.00422 17.9746L6 18.8149L9.45969 18.8339C9.45336 18.7225 9.45126 18.6112 9.45126 18.4998C9.45126 18.3297 9.45969 18.1616 9.47234 17.9935Z" fill="#070606"/>
<path d="M11.644 13.4494L8.32555 11.252L7.85962 11.9515L11.0579 14.0692C11.2413 13.8507 11.4374 13.6448 11.6461 13.4494H11.644Z" fill="#070606"/>
<path d="M23.2563 19.7165L30.6691 21.2039L30.8356 20.3804L23.3554 18.8804C23.3407 19.164 23.3048 19.4434 23.2563 19.7186V19.7165Z" fill="#070606"/>
<path d="M21.7805 14.0946L25.7167 8.36346L25.0209 7.88867L21.1902 13.4664C21.3989 13.6639 21.5971 13.8719 21.7805 14.0946Z" fill="#070606"/>
</g>
<path d="M38.6352 26.6757H37V10.0762H38.6352V26.6757Z" fill="#070606"/>
<path d="M45.1652 26.9234C42.8363 26.9234 41.2754 25.536 41.2754 22.786V14.7835H42.8858V22.4391C42.8858 24.3468 43.7777 25.536 45.8093 25.536C48.386 25.536 49.377 23.7274 49.377 21.6463V14.7835H50.9874V26.6757H49.377V23.2815C48.9558 25.2635 47.6179 26.9234 45.1652 26.9234Z" fill="#070606"/>
<path d="M55.3431 26.6757H53.7079V14.7835H55.3431V18.1034C55.7643 16.1461 57.0774 14.5357 59.2824 14.5357C61.4379 14.5357 62.7014 15.7497 62.8253 18.153C63.2217 16.1957 64.5843 14.5357 66.8141 14.5357C69.0935 14.5357 70.3818 15.8984 70.3818 18.6237V26.6757H68.7466V18.9953C68.7466 16.9142 67.8299 15.8984 65.9965 15.8984C63.8658 15.8984 62.8501 17.7318 62.8501 19.7881V26.6757H61.2397V18.9953C61.2397 16.9142 60.323 15.8984 58.4648 15.8984C56.3589 15.8984 55.3431 17.7318 55.3431 19.7881V26.6757Z" fill="#070606"/>
<path d="M74.621 12.6528H72.9858V10.0762H74.621V12.6528ZM74.621 26.6757H72.9858V14.7835H74.621V26.6757Z" fill="#070606"/>
<path d="M78.9707 26.6757H77.3356V14.7835H78.9707V18.1034C79.3919 16.1709 80.7546 14.5357 83.133 14.5357C85.4867 14.5357 87.0723 15.9232 87.0723 18.6485V26.6757H85.4371V19.0201C85.4371 17.0876 84.5452 15.8984 82.4888 15.8984C79.9865 15.8984 78.9707 17.7318 78.9707 19.7881V26.6757Z" fill="#070606"/>
<path d="M92.0952 26.9234C90.138 26.9234 89.0231 25.8581 89.0231 24.2725C89.0231 22.7116 90.1875 21.7206 91.8475 20.9773L96.3566 18.921V18.8219C96.3566 17.0381 95.5142 15.9975 93.5817 15.9975C91.7979 15.9975 90.5096 17.0133 89.8902 18.3264L88.7505 17.1867C89.4938 15.9479 91.2281 14.5357 93.7552 14.5357C96.53 14.5357 97.967 16.1461 97.967 18.7971V24.3716C97.967 24.991 98.2395 25.2139 98.8094 25.2139H99.5031V26.6757H98.3882C97.199 26.6757 96.4061 26.1554 96.4061 24.6441V23.3806C96.0097 25.0901 94.4737 26.9234 92.0952 26.9234ZM90.6583 24.0495C90.6583 25.0405 91.4015 25.5608 92.566 25.5608C94.771 25.5608 96.4061 23.8513 96.4061 22.2409V20.135L92.5412 21.9684C91.2529 22.563 90.6583 23.1576 90.6583 24.0495Z" fill="#070606"/>
<defs>
<clipPath id="clip0_683_1000">
<rect width="25" height="25" fill="white" transform="translate(6 6)"/>
</clipPath>
</defs>
</svg>
