<svg width="94" height="37" viewBox="0 0 94 37" fill="none" xmlns="http://www.w3.org/2000/svg">
<mask id="mask0_761_8984" style="mask-type:luminance" maskUnits="userSpaceOnUse" x="0" y="6" width="25" height="26">
<path d="M25 6.5H0V31.5H25V6.5Z" fill="white"/>
</mask>
<g mask="url(#mask0_761_8984)">
<path d="M22.6868 26.164L23.1548 25.4644L16.9586 21.3384C16.8616 21.6073 16.7477 21.8699 16.6191 22.122L22.6868 26.1619V26.164Z" fill="#070606"/>
<path d="M15.2796 6.86962L14.4511 6.70996L13.2852 12.6869C13.555 12.8087 13.8144 12.9453 14.0631 13.1007L15.2796 6.86962Z" fill="#070606"/>
<path d="M4.0965 9.86147L3.50195 10.456L6.4029 13.3321C6.6391 13.1661 6.8836 13.0148 7.1408 12.8783L4.0986 9.85938L4.0965 9.86147Z" fill="#070606"/>
<path d="M12.8609 6.5H12.0176V12.2563C12.3064 12.3235 12.5868 12.4097 12.8609 12.5126V6.5Z" fill="#070606"/>
<path d="M5.979 8.38882L5.2832 8.86361L7.8258 12.5632C8.0957 12.456 8.374 12.3615 8.6586 12.288L5.979 8.38672V8.38882Z" fill="#070606"/>
<path d="M8.20017 7.33838L7.41797 7.6535L9.24797 12.1661C9.53267 12.1178 9.82567 12.0884 10.1209 12.0758L8.20017 7.33838Z" fill="#070606"/>
<path d="M17.5814 7.6535L16.7992 7.33838L14.3789 13.309C14.6193 13.477 14.8512 13.6577 15.0683 13.8531L17.5814 7.6535Z" fill="#070606"/>
<path d="M24.802 16.9897L24.6418 16.1641L17.2207 17.5863C17.2776 17.8573 17.3155 18.1368 17.3408 18.4183L24.802 16.9897Z" fill="#070606"/>
<path d="M24.1638 14.5965L23.837 13.8213L16.9746 16.7015C17.0673 16.9662 17.1453 17.2373 17.2065 17.5167L24.1638 14.5965Z" fill="#070606"/>
<path d="M23.9505 24.0526L24.2625 23.2732L17.2103 20.4644C17.1513 20.7417 17.0732 21.0127 16.9805 21.2774L23.9483 24.0526H23.9505Z" fill="#070606"/>
<path d="M23.1433 12.4515L22.6774 11.752L16.5781 15.7919C16.7088 16.0419 16.8269 16.3024 16.9281 16.5692L23.1454 12.4515H23.1433Z" fill="#070606"/>
<path d="M17.3583 19.357L25.0008 19.3149L24.9966 18.4746L17.3477 18.5166C17.3583 18.6763 17.3667 18.8381 17.3667 18.9998C17.3667 19.1196 17.3646 19.2393 17.3583 19.357Z" fill="#070606"/>
<path d="M21.4974 10.458L20.9028 9.86133L15.9336 14.7899C16.1065 15.0168 16.2667 15.2542 16.4122 15.5L21.4974 10.458Z" fill="#070606"/>
<path d="M9.70117 31.099L10.5319 31.246L11.4869 25.8511C11.2023 25.8952 10.9113 25.9204 10.6162 25.9288L9.70117 31.099Z" fill="#070606"/>
<path d="M16.9781 30.6367L17.7603 30.3237L15.2198 24.0044C15.0069 24.2082 14.7792 24.3994 14.541 24.5758L16.976 30.6367H16.9781Z" fill="#070606"/>
<path d="M19.2183 29.5275L19.9182 29.057L15.9483 23.1914C15.7712 23.4225 15.5815 23.6431 15.377 23.849L19.2183 29.5254V29.5275Z" fill="#070606"/>
<path d="M7.24023 30.3234L8.02243 30.6364L9.91993 25.9137C9.62683 25.8927 9.33803 25.857 9.05763 25.8003L7.24023 30.3234Z" fill="#070606"/>
<path d="M12.2285 31.4998H13.0718V25.4053C12.7999 25.5187 12.5174 25.6133 12.2285 25.691V31.4998Z" fill="#070606"/>
<path d="M5.08203 29.0587L5.78203 29.5293L8.41313 25.6427C8.13483 25.5587 7.86283 25.4578 7.59933 25.3423L5.08413 29.0587H5.08203Z" fill="#070606"/>
<path d="M1.16662 13.8213L0.839844 14.5965L4.14563 15.9831C4.27003 15.7289 4.40913 15.4831 4.56303 15.2457L1.16662 13.8213Z" fill="#070606"/>
<path d="M14.4705 31.2439L15.3012 31.0968L14.1901 24.8174C13.9413 24.9791 13.682 25.1262 13.4121 25.2544L14.4726 31.2439H14.4705Z" fill="#070606"/>
<path d="M0.164062 20.8804L0.330623 21.7039L3.75236 21.0169C3.67013 20.7501 3.60688 20.477 3.55839 20.1997L0.164062 20.8804Z" fill="#070606"/>
<path d="M0.357496 16.1641L0.197266 16.9897L3.58528 17.6389C3.6401 17.3615 3.71389 17.0905 3.80243 16.8237L0.357496 16.1641Z" fill="#070606"/>
<path d="M0.738281 23.2711L1.05031 24.0506L4.50999 22.6724C4.36029 22.4329 4.22539 22.185 4.10309 21.9287L0.738281 23.269V23.2711Z" fill="#070606"/>
<path d="M3.29688 27.4665L3.8893 28.0652L6.97581 25.0295C6.72491 24.8867 6.48251 24.7312 6.25271 24.561L3.29688 27.4686V27.4665Z" fill="#070606"/>
<path d="M21.1117 28.065L21.7042 27.4663L16.5009 22.3486C16.3618 22.6007 16.2058 22.8423 16.0371 23.0734L21.1117 28.065Z" fill="#070606"/>
<path d="M10.5492 6.70996L9.7207 6.86962L10.7369 12.0755C11.0342 12.0902 11.3272 12.1238 11.616 12.1721L10.5492 6.70996Z" fill="#070606"/>
<path d="M5.00387 23.3613L1.8457 25.4643L2.31374 26.1638L5.57947 23.9895C5.37497 23.792 5.18097 23.584 5.00177 23.3634L5.00387 23.3613Z" fill="#070606"/>
<path d="M3.47234 18.4935L0.00422001 18.4746L0 19.3149L3.45969 19.3339C3.45336 19.2225 3.45126 19.1112 3.45126 18.9998C3.45126 18.8297 3.45969 18.6616 3.47234 18.4935Z" fill="#070606"/>
<path d="M5.64375 13.9494L2.3253 11.752L1.85938 12.4515L5.05766 14.5692C5.24106 14.3507 5.43715 14.1448 5.64585 13.9494H5.64375Z" fill="#070606"/>
<path d="M17.2559 20.2165L24.6687 21.7039L24.8352 20.8804L17.355 19.3804C17.3403 19.664 17.3044 19.9434 17.2559 20.2186V20.2165Z" fill="#070606"/>
<path d="M15.7798 14.5946L19.716 8.86346L19.0202 8.38867L15.1895 13.9664C15.3982 14.1639 15.5964 14.3719 15.7798 14.5946Z" fill="#070606"/>
</g>
<path d="M32.6352 27.1757H31V10.5762H32.6352V27.1757Z" fill="#070606"/>
<path d="M39.1652 27.4236C36.8363 27.4236 35.2754 26.0362 35.2754 23.2862V15.2837H36.8858V22.9393C36.8858 24.847 37.7777 26.0362 39.8093 26.0362C42.386 26.0362 43.377 24.2276 43.377 22.1465V15.2837H44.9874V27.1759H43.377V23.7817C42.9558 25.7637 41.6179 27.4236 39.1652 27.4236Z" fill="#070606"/>
<path d="M49.3422 27.1756H47.707V15.2834H49.3422V18.6033C49.7634 16.646 51.0765 15.0356 53.2815 15.0356C55.437 15.0356 56.7005 16.2496 56.8244 18.6529C57.2208 16.6956 58.5834 15.0356 60.8132 15.0356C63.0926 15.0356 64.3809 16.3983 64.3809 19.1236V27.1756H62.7457V19.4952C62.7457 17.4141 61.829 16.3983 59.9956 16.3983C57.8649 16.3983 56.8492 18.2317 56.8492 20.288V27.1756H55.2388V19.4952C55.2388 17.4141 54.3221 16.3983 52.4639 16.3983C50.358 16.3983 49.3422 18.2317 49.3422 20.288V27.1756Z" fill="#070606"/>
<path d="M68.6215 13.1528H66.9863V10.5762H68.6215V13.1528ZM68.6215 27.1757H66.9863V15.2835H68.6215V27.1757Z" fill="#070606"/>
<path d="M72.971 27.1756H71.3359V15.2834H72.971V18.6033C73.3922 16.6708 74.7549 15.0356 77.1333 15.0356C79.487 15.0356 81.0726 16.4231 81.0726 19.1484V27.1756H79.4374V19.52C79.4374 17.5875 78.5455 16.3983 76.4891 16.3983C73.9868 16.3983 72.971 18.2317 72.971 20.288V27.1756Z" fill="#070606"/>
<path d="M86.0947 27.4233C84.1375 27.4233 83.0226 26.358 83.0226 24.7724C83.0226 23.2115 84.187 22.2205 85.847 21.4772L90.3561 19.4209V19.3218C90.3561 17.538 89.5137 16.4974 87.5812 16.4974C85.7974 16.4974 84.5091 17.5132 83.8897 18.8263L82.75 17.6866C83.4933 16.4478 85.2276 15.0356 87.7547 15.0356C90.5295 15.0356 91.9665 16.646 91.9665 19.297V24.8715C91.9665 25.4909 92.239 25.7138 92.8089 25.7138H93.5026V27.1756H92.3877C91.1985 27.1756 90.4056 26.6553 90.4056 25.144V23.8805C90.0092 25.59 88.4732 27.4233 86.0947 27.4233ZM84.6578 24.5494C84.6578 25.5404 85.401 26.0607 86.5655 26.0607C88.7705 26.0607 90.4056 24.3512 90.4056 22.7408V20.6349L86.5407 22.4683C85.2524 23.0629 84.6578 23.6575 84.6578 24.5494Z" fill="#070606"/>
</svg>
